# xmcd CD database file
#
# Track frame offsets:
#	180
#	13325
#	33923
#	42778
#	62162
#	78691
#	96279
#	108990
#	120959
#	138075
#	167370
#	188635
#	202891
#	219915
#
# Disc length: 3086 seconds
#
# Revision: 0
# Processed by: cddbd v1.5PL3 Copyright (c) Steve Scherf et al.
# Submitted via: CDex 1.51
#
DISCID=ae0c0c0e
DTITLE=Catch 22 - Rambunctious
DYEAR=1900
DGENRE=Blues
TTITLE0=Glover Millinder Mundy_Ram-Bunk_Shush
TTITLE1=Stewart Barnes_Politician Blues
TTITLE2=Underwood_Ubangi Stomp
TTITLE3=Stewart Barnes_Country life
TTITLE4=Stewart Barnes_'Chickin Pickin'
TTITLE5=John Armatrading_Opportunity
TTITLE6=Stewart Barnes_Paddy's reel
TTITLE7=Stewart Barnes_Jazz 'A' Billy
TTITLE8=Steve Young_Renegade picker
TTITLE9=Traditional_Whisky blues
TTITLE10=Stewart Barnes_Lincoln Green
TTITLE11=Steve Ripley/Walt Richmond_Baby likes to rock it
TTITLE12=Al and Louis Smith_The judge should know
TTITLE13=Traditional_Classical blast
EXTD=
EXTT0=
EXTT1=
EXTT2=
EXTT3=
EXTT4=
EXTT5=
EXTT6=
EXTT7=
EXTT8=
EXTT9=
EXTT10=
EXTT11=
EXTT12=
EXTT13=
PLAYORDER=
